<?xml version="1.0" standalone="no"?><!DOCTYPE svg PUBLIC "-//W3C//DTD SVG 1.1//EN"
        "http://www.w3.org/Graphics/SVG/1.1/DTD/svg11.dtd">
<svg class="icon" viewBox="0 0 1024 1024" version="1.1" xmlns="http://www.w3.org/2000/svg"
     width="40" height="40">
    <path d="M42.688 938.688v-640c0-1.28 0-2.56 0.128-3.84Q59.52 111.488 192.512 62.464 243.776 43.52 302.72 50.176q51.328 5.888 92.608 28.544a42.688 42.688 0 0 1 20.288 24.96q24.768 81.536 35.2 90.56 82.944 45.056 82.432 121.792-0.32 54.912-41.216 99.584a42.688 42.688 0 1 1-62.912-57.6q18.688-20.48 18.816-42.56 0.192-26.112-39.488-47.104a42.56 42.56 0 0 1-3.2-1.92q-25.728-16.64-43.328-56.64-8.768-20.032-22.4-63.296-21.12-8.64-46.464-11.52-38.848-4.416-71.04 7.488Q140.16 172.8 128 300.608v638.08a42.688 42.688 0 1 1-85.312 0z"
          fill="url(#paint0_linear)"/>
    <path d="M901.12 596.224q-29.12-54.08-64.576-44.224-30.976 14.784-23.36 43.648 10.496 39.936 49.216 57.92 80.128 37.248 106.752 104.192 24.32 61.056-3.2 114.944-28.16 55.424-76.608 84.608-44.288 26.688-96 26.368-48.768-0.32-89.216-24.192-43.392-25.6-60.992-68.672l-0.512-1.344q-88.96-240.96-294.592-316.032a42.688 42.688 0 1 1 29.248-80.192q242.432 88.512 345.088 365.824 6.848 16.128 25.152 26.88 20.608 12.16 46.4 12.352 63.04 0.448 96.064-64.384 9.92-19.392-0.064-44.544-14.144-35.456-63.488-58.432-33.6-15.616-59.712-46.208-26.56-31.232-36.096-67.328-11.52-43.776 5.632-81.28 18.944-41.408 67.776-63.104a42.688 42.688 0 0 1 4.032-1.6q48.128-15.68 92.8 6.016 44.992 21.824 75.392 78.336a42.688 42.688 0 0 1-75.136 40.448z"
          fill="url(#paint0_linear)"/>
    <path d="M277.504 935.232q13.056-160.384 146.688-216.576 97.024-40.832 204.992-13.312a42.688 42.688 0 1 1-21.056 82.688q-80.192-20.48-150.848 9.28-85.888 36.096-94.72 144.832a42.688 42.688 0 1 1-85.12-6.912z"
          fill="url(#paint0_linear)"/>
    <defs>
        <linearGradient id="paint0_linear">
            <stop offset="0" stop-color="#3BEA62"/>
            <stop offset="0.8404" stop-color="#3C99CC"/>
            <stop offset="1.0" stop-color="#6B57FF"/>
        </linearGradient>
    </defs>
</svg>